<svg width="61" height="61" viewBox="0 0 61 61" fill="none" xmlns="http://www.w3.org/2000/svg">
<path d="M9.40437 6.98959L9.46029 33.4738L12.1036 33.5297L8.18945 47.5393L28.8405 49.0974L28.0602 56.5521L30.3325 54.1731L32.8843 56.3843L32.1192 49.3071L52.8109 47.4783L48.846 33.6415H51.4283L51.5401 7.04551L9.40437 6.98959Z" stroke="#002651" stroke-linecap="round" stroke-linejoin="round"/>
<path d="M15.4125 32.7926C21.8836 29.4109 26.0722 32.7036 30.3321 35.7968C35.3391 31.5472 40.3488 29.7654 45.3584 32.9044L48.5914 45.0993C42.8536 43.8488 37.1539 43.0889 31.8621 47.1987L30.4439 37.3828L29.0256 47.3665C24.6362 44.9214 20.4983 42.1179 12.2964 45.0993L15.4125 32.7926ZM12.8606 10.2175L12.9216 30.4085L47.9102 30.4644L47.9661 10.1057L12.8606 10.2175Z" stroke="#005CA4" stroke-linecap="round" stroke-linejoin="round"/>
<path d="M30.4999 21.2788L31.974 22.9258M29.0257 47.3665L28.8389 49.0923M31.8622 47.1987L32.1189 49.3083M27.4956 17.4816L29.4222 22.0159L31.4098 20.374L27.4956 17.4816Z" stroke="#002651" stroke-linecap="round" stroke-linejoin="round"/>
</svg>
