<svg width="95" height="95" viewBox="0 0 95 95" fill="none" xmlns="http://www.w3.org/2000/svg">
<path d="M14.6457 10.8854L14.7328 52.1312L18.8495 52.2183L12.7537 74.0366L44.9151 76.4631L43.6999 88.0729L47.2387 84.3679L51.2128 87.8116L50.0214 76.7896L82.2462 73.9416L76.0712 52.3925H80.0928L80.267 10.9725L14.6457 10.8854Z" stroke="#002651" stroke-linecap="round" stroke-linejoin="round"/>
<path d="M24.0033 51.0704C34.0812 45.8038 40.6046 50.9318 47.2387 55.7491C55.0366 49.1308 62.8385 46.356 70.6404 51.2445L75.6754 70.2366C66.7395 68.2891 57.8629 67.1056 49.6216 73.5062L47.4129 58.2191L45.2041 73.7674C38.3681 69.9595 31.9239 65.5935 19.1504 70.2366L24.0033 51.0704ZM20.0291 15.9124L20.1241 47.3574L74.6146 47.4445L74.7016 15.7383L20.0291 15.9124Z" stroke="#005CA4" stroke-linecap="round" stroke-linejoin="round"/>
<path d="M47.5 33.1392L49.7959 35.7042M45.2042 73.7675L44.9133 76.4553M49.6217 73.5063L50.0215 76.7917M42.8213 27.2255L45.8217 34.2871L48.9171 31.73L42.8213 27.2255Z" stroke="#002651" stroke-linecap="round" stroke-linejoin="round"/>
</svg>
